<svg id="Layer_1" data-name="Layer 1" xmlns="http://www.w3.org/2000/svg" xmlns:xlink="http://www.w3.org/1999/xlink" viewBox="0 0 103.23 94.03"><defs><style>.cls-1{fill:#b100f2;}.cls-2{fill:url(#linear-gradient);}.cls-3{fill:#f82833;}</style><linearGradient id="linear-gradient" x1="31.02" y1="56.13" x2="68" y2="34.78" gradientUnits="userSpaceOnUse"><stop offset="0" stop-color="#b100f2"/><stop offset="1" stop-color="#f82833"/></linearGradient></defs><circle class="cls-1" cx="18.52" cy="33.5" r="4.95"/><path class="cls-2" d="M49.51,66.81A21.36,21.36,0,1,1,70.86,45.46,21.38,21.38,0,0,1,49.51,66.81Zm0-33.9A12.55,12.55,0,1,0,62.05,45.46,12.56,12.56,0,0,0,49.51,32.91Z"/><path class="cls-1" d="M46,81.91A34,34,0,0,1,12.1,48a4.41,4.41,0,0,1,8.81,0A25.15,25.15,0,0,0,46,73.1a4.41,4.41,0,0,1,0,8.81Z"/><path class="cls-3" d="M80.46,59.75a4.33,4.33,0,0,1-1.75-.37,4.41,4.41,0,0,1-2.3-5.79,25.15,25.15,0,0,0-13.11-33,4.41,4.41,0,0,1,3.49-8.09A34,34,0,0,1,84.5,57.08,4.39,4.39,0,0,1,80.46,59.75Z"/><path class="cls-3" d="M94.9,20.93H65.05a4.41,4.41,0,1,1,0-8.81H94.9a4.41,4.41,0,1,1,0,8.81Z"/></svg>